<svg baseProfile="basic" xmlns="http://www.w3.org/2000/svg" xmlns:xlink="http://www.w3.org/1999/xlink" width="32" height="32" viewBox="0 0 32 32"><defs><path id="a" d="M2.35 3.5h27.29v25H2.35z"/></defs><clipPath id="b"><use xlink:href="#a" overflow="visible"/></clipPath><path clip-path="url(#b)" fill="none" stroke="#0C9" stroke-width="1.5" stroke-linecap="round" stroke-linejoin="round" stroke-miterlimit="10" d="M18.85 4H7.43C4.9 4 2.85 6.05 2.85 8.57v4.57c0 2.53 2.05 4.57 4.57 4.57h1.72v4.57l4.57-4.57h5.14c2.53 0 4.57-2.05 4.57-4.57V8.57C23.43 6.05 21.38 4 18.85 4z"/><g><defs><path id="c" d="M2.35 3.5h27.29v25H2.35z"/></defs><clipPath id="d"><use xlink:href="#c" overflow="visible"/></clipPath><path clip-path="url(#d)" fill="none" stroke="#0C9" stroke-width="1.5" stroke-linecap="round" stroke-linejoin="round" stroke-miterlimit="10" d="M15.43 21.71c0 1.58 1.28 2.86 2.86 2.86h2.86L24.57 28v-3.43h1.71c1.58 0 2.86-1.28 2.86-2.86v-2.29c0-1.58-1.28-2.86-2.86-2.86"/></g></svg>