<?xml version="1.0" encoding="utf-8"?>
<!-- Generator: Adobe Illustrator 16.0.0, SVG Export Plug-In . SVG Version: 6.00 Build 0)  -->
<!DOCTYPE svg PUBLIC "-//W3C//DTD SVG 1.1 Basic//EN" "http://www.w3.org/Graphics/SVG/1.1/DTD/svg11-basic.dtd">
<svg version="1.1" baseProfile="basic" id="Layer_1"
	 xmlns="http://www.w3.org/2000/svg" xmlns:xlink="http://www.w3.org/1999/xlink" x="0px" y="0px" width="32px" height="32px"
	 viewBox="0 0 32 32" xml:space="preserve">
<g>
	<defs>
		<rect id="SVGID_1_" x="2.35" y="3.5" width="27.29" height="25"/>
	</defs>
	<clipPath id="SVGID_2_">
		<use xlink:href="#SVGID_1_"  overflow="visible"/>
	</clipPath>
	
		<path clip-path="url(#SVGID_2_)" fill="none" stroke="#00CC99" stroke-linecap="round" stroke-linejoin="round" stroke-miterlimit="10" d="
		M18.85,4H7.43C4.9,4,2.85,6.05,2.85,8.57v4.57c0,2.53,2.05,4.57,4.57,4.57h1.72v4.57l4.57-4.57h5.14c2.53,0,4.57-2.05,4.57-4.57
		V8.57C23.43,6.05,21.38,4,18.85,4z"/>
	
		<path clip-path="url(#SVGID_2_)" fill="none" stroke="#00CC99" stroke-linecap="round" stroke-linejoin="round" stroke-miterlimit="10" d="
		M15.43,21.71c0,1.58,1.28,2.86,2.86,2.86h2.86L24.57,28v-3.43h1.71c1.58,0,2.86-1.28,2.86-2.86v-2.29c0-1.58-1.28-2.86-2.86-2.86"
		/>
</g>
</svg>
